# xmcd
#
# Track frame offsets:
# 150
# 15468
# 31165
# 48222
# 63144
# 77615
# 94921
# 115672
# 135800
# 151948
#
# Disc length: 2257 seconds
#
#
# Revision: 0
# Processed by: cddbd v1.5.1PL0 Copyright (c) Steve Scherf et al.
# Submitted via: FreeRIP 2.92 
#
DISCID=6208cf0a
DTITLE=Joanna Ramirez - Satisfy Me
DYEAR=2000
DGENRE=Blues
TTITLE0=Not What You're Lookin' For
TTITLE1=Love Again
TTITLE2=Good Enough
TTITLE3=Outta Tears
TTITLE4=All Around the World
TTITLE5=Easy as 123
TTITLE6=Fool For You Baby
TTITLE7=Love me Tonight
TTITLE8=Same Old Blues
TTITLE9=Satisfy Me
EXTD=
EXTT0=
EXTT1=
EXTT2=
EXTT3=
EXTT4=
EXTT5=
EXTT6=
EXTT7=
EXTT8=
EXTT9=
PLAYORDER=
